<mxfile host="app.diagrams.net" modified="2024-05-27T10:26:50.396Z" agent="Mozilla/5.0 (Windows NT 10.0; Win64; x64) AppleWebKit/537.36 (KHTML, like Gecko) Chrome/125.0.0.0 Safari/537.36 Edg/125.0.0.0" etag="zKDzgObiffyJIasGuN5l" version="24.4.8" type="onedrive" pages="2">
  <diagram name="Page-1" id="omUwBOJLv78RGTcjt-QZ">
    <mxGraphModel grid="1" page="1" gridSize="10" guides="1" tooltips="1" connect="1" arrows="1" fold="1" pageScale="1" pageWidth="827" pageHeight="1169" math="0" shadow="0">
      <root>
        <mxCell id="0" />
        <mxCell id="1" parent="0" />
        <mxCell id="K16pZWRzyR4O-ZYWqpP9-3" style="edgeStyle=orthogonalEdgeStyle;rounded=0;orthogonalLoop=1;jettySize=auto;html=1;entryX=0;entryY=0.5;entryDx=0;entryDy=0;" edge="1" parent="1" source="K16pZWRzyR4O-ZYWqpP9-1" target="K16pZWRzyR4O-ZYWqpP9-2">
          <mxGeometry relative="1" as="geometry" />
        </mxCell>
        <mxCell id="K16pZWRzyR4O-ZYWqpP9-51" value="" style="edgeStyle=orthogonalEdgeStyle;rounded=0;orthogonalLoop=1;jettySize=auto;html=1;" edge="1" parent="1" source="K16pZWRzyR4O-ZYWqpP9-1" target="K16pZWRzyR4O-ZYWqpP9-4">
          <mxGeometry relative="1" as="geometry" />
        </mxCell>
        <mxCell id="K16pZWRzyR4O-ZYWqpP9-52" value="" style="edgeStyle=orthogonalEdgeStyle;rounded=0;orthogonalLoop=1;jettySize=auto;html=1;" edge="1" parent="1" source="K16pZWRzyR4O-ZYWqpP9-1" target="K16pZWRzyR4O-ZYWqpP9-4">
          <mxGeometry relative="1" as="geometry" />
        </mxCell>
        <mxCell id="K16pZWRzyR4O-ZYWqpP9-54" style="edgeStyle=orthogonalEdgeStyle;rounded=0;orthogonalLoop=1;jettySize=auto;html=1;entryX=0;entryY=0.5;entryDx=0;entryDy=0;" edge="1" parent="1" source="K16pZWRzyR4O-ZYWqpP9-1" target="K16pZWRzyR4O-ZYWqpP9-53">
          <mxGeometry relative="1" as="geometry">
            <Array as="points">
              <mxPoint x="65" y="55" />
            </Array>
          </mxGeometry>
        </mxCell>
        <mxCell id="K16pZWRzyR4O-ZYWqpP9-1" value="&lt;div&gt;User&lt;/div&gt;" style="shape=umlActor;verticalLabelPosition=bottom;verticalAlign=top;html=1;outlineConnect=0;" vertex="1" parent="1">
          <mxGeometry x="50" y="130" width="30" height="60" as="geometry" />
        </mxCell>
        <mxCell id="K16pZWRzyR4O-ZYWqpP9-5" style="edgeStyle=orthogonalEdgeStyle;rounded=0;orthogonalLoop=1;jettySize=auto;html=1;entryX=0.5;entryY=0;entryDx=0;entryDy=0;" edge="1" parent="1" source="K16pZWRzyR4O-ZYWqpP9-2" target="K16pZWRzyR4O-ZYWqpP9-6">
          <mxGeometry relative="1" as="geometry">
            <mxPoint x="350" y="310" as="targetPoint" />
          </mxGeometry>
        </mxCell>
        <mxCell id="K16pZWRzyR4O-ZYWqpP9-2" value="&lt;div&gt;flask/__init__.py&lt;/div&gt;&lt;div&gt;generate_sql(question)&lt;/div&gt;" style="rounded=0;whiteSpace=wrap;html=1;" vertex="1" parent="1">
          <mxGeometry x="240" y="125" width="190" height="70" as="geometry" />
        </mxCell>
        <mxCell id="K16pZWRzyR4O-ZYWqpP9-4" value="Ask the questions" style="text;html=1;align=center;verticalAlign=middle;whiteSpace=wrap;rounded=0;" vertex="1" parent="1">
          <mxGeometry x="100" y="130" width="110" height="30" as="geometry" />
        </mxCell>
        <mxCell id="K16pZWRzyR4O-ZYWqpP9-9" value="" style="edgeStyle=orthogonalEdgeStyle;rounded=0;orthogonalLoop=1;jettySize=auto;html=1;" edge="1" parent="1" source="K16pZWRzyR4O-ZYWqpP9-6" target="K16pZWRzyR4O-ZYWqpP9-8">
          <mxGeometry relative="1" as="geometry" />
        </mxCell>
        <mxCell id="K16pZWRzyR4O-ZYWqpP9-23" value="" style="edgeStyle=orthogonalEdgeStyle;rounded=0;orthogonalLoop=1;jettySize=auto;html=1;" edge="1" parent="1" source="K16pZWRzyR4O-ZYWqpP9-6" target="K16pZWRzyR4O-ZYWqpP9-22">
          <mxGeometry relative="1" as="geometry" />
        </mxCell>
        <mxCell id="K16pZWRzyR4O-ZYWqpP9-27" value="" style="edgeStyle=orthogonalEdgeStyle;rounded=0;orthogonalLoop=1;jettySize=auto;html=1;" edge="1" parent="1" source="K16pZWRzyR4O-ZYWqpP9-6" target="K16pZWRzyR4O-ZYWqpP9-26">
          <mxGeometry relative="1" as="geometry" />
        </mxCell>
        <mxCell id="K16pZWRzyR4O-ZYWqpP9-31" value="" style="edgeStyle=orthogonalEdgeStyle;rounded=0;orthogonalLoop=1;jettySize=auto;html=1;" edge="1" parent="1" source="K16pZWRzyR4O-ZYWqpP9-6" target="K16pZWRzyR4O-ZYWqpP9-30">
          <mxGeometry relative="1" as="geometry" />
        </mxCell>
        <mxCell id="K16pZWRzyR4O-ZYWqpP9-46" style="edgeStyle=orthogonalEdgeStyle;rounded=0;orthogonalLoop=1;jettySize=auto;html=1;entryX=0.5;entryY=0;entryDx=0;entryDy=0;" edge="1" parent="1" source="K16pZWRzyR4O-ZYWqpP9-6" target="K16pZWRzyR4O-ZYWqpP9-38">
          <mxGeometry relative="1" as="geometry" />
        </mxCell>
        <mxCell id="K16pZWRzyR4O-ZYWqpP9-6" value="model.&lt;br&gt;&lt;div style=&quot;color: #d4d4d4;background-color: #1e1e1e;font-family: Consolas, &#39;Courier New&#39;, monospace;font-weight: normal;font-size: 14px;line-height: 19px;white-space: pre;&quot;&gt;&lt;div&gt;&lt;span style=&quot;color: #dcdcaa;&quot;&gt;generate_sql&lt;/span&gt;&lt;/div&gt;&lt;/div&gt;" style="rounded=0;whiteSpace=wrap;html=1;" vertex="1" parent="1">
          <mxGeometry x="240" y="240" width="190" height="60" as="geometry" />
        </mxCell>
        <mxCell id="K16pZWRzyR4O-ZYWqpP9-12" value="" style="edgeStyle=orthogonalEdgeStyle;rounded=0;orthogonalLoop=1;jettySize=auto;html=1;" edge="1" parent="1" source="K16pZWRzyR4O-ZYWqpP9-8" target="K16pZWRzyR4O-ZYWqpP9-11">
          <mxGeometry relative="1" as="geometry" />
        </mxCell>
        <mxCell id="K16pZWRzyR4O-ZYWqpP9-8" value="&lt;div style=&quot;color: #d4d4d4;background-color: #1e1e1e;font-family: Consolas, &#39;Courier New&#39;, monospace;font-weight: normal;font-size: 14px;line-height: 19px;white-space: pre;&quot;&gt;&lt;div&gt;&lt;span style=&quot;color: #dcdcaa;&quot;&gt;get_similar_question_sql()&lt;/span&gt;&lt;/div&gt;&lt;div&gt;&lt;span style=&quot;color: #dcdcaa;&quot;&gt;()&lt;br&gt;&lt;/span&gt;&lt;/div&gt;&lt;/div&gt;" style="whiteSpace=wrap;html=1;rounded=0;" vertex="1" parent="1">
          <mxGeometry x="228.75" y="360" width="212.5" height="60" as="geometry" />
        </mxCell>
        <mxCell id="K16pZWRzyR4O-ZYWqpP9-14" value="" style="edgeStyle=orthogonalEdgeStyle;rounded=0;orthogonalLoop=1;jettySize=auto;html=1;" edge="1" parent="1" source="K16pZWRzyR4O-ZYWqpP9-11" target="K16pZWRzyR4O-ZYWqpP9-13">
          <mxGeometry relative="1" as="geometry" />
        </mxCell>
        <mxCell id="K16pZWRzyR4O-ZYWqpP9-16" value="" style="edgeStyle=orthogonalEdgeStyle;rounded=0;orthogonalLoop=1;jettySize=auto;html=1;" edge="1" parent="1" source="K16pZWRzyR4O-ZYWqpP9-11" target="K16pZWRzyR4O-ZYWqpP9-15">
          <mxGeometry relative="1" as="geometry" />
        </mxCell>
        <mxCell id="K16pZWRzyR4O-ZYWqpP9-11" value="quetion in &lt;br&gt;&lt;div style=&quot;color: #d4d4d4;background-color: #1e1e1e;font-family: Consolas, &#39;Courier New&#39;, monospace;font-weight: normal;font-size: 14px;line-height: 19px;white-space: pre;&quot;&gt;&lt;div&gt;&lt;span style=&quot;color: #9cdcfe;&quot;&gt;related_training_data&lt;/span&gt;&lt;/div&gt;&lt;/div&gt;" style="rhombus;whiteSpace=wrap;html=1;rounded=0;" vertex="1" parent="1">
          <mxGeometry x="225" y="480" width="220" height="150" as="geometry" />
        </mxCell>
        <mxCell id="K16pZWRzyR4O-ZYWqpP9-13" value="&lt;div style=&quot;font-family: Consolas, &amp;quot;Courier New&amp;quot;, monospace; font-weight: normal; font-size: 14px; line-height: 19px; white-space: pre;&quot;&gt;&lt;div&gt;&lt;span style=&quot;background-color: rgb(255, 255, 255);&quot;&gt;get_related_training_data_cached&lt;/span&gt;&lt;/div&gt;&lt;/div&gt;" style="whiteSpace=wrap;html=1;rounded=0;" vertex="1" parent="1">
          <mxGeometry x="590" y="525" width="280" height="60" as="geometry" />
        </mxCell>
        <mxCell id="K16pZWRzyR4O-ZYWqpP9-20" style="edgeStyle=orthogonalEdgeStyle;rounded=0;orthogonalLoop=1;jettySize=auto;html=1;entryX=0;entryY=0.5;entryDx=0;entryDy=0;" edge="1" parent="1" source="K16pZWRzyR4O-ZYWqpP9-15" target="K16pZWRzyR4O-ZYWqpP9-19">
          <mxGeometry relative="1" as="geometry">
            <Array as="points">
              <mxPoint x="70" y="720" />
            </Array>
          </mxGeometry>
        </mxCell>
        <mxCell id="K16pZWRzyR4O-ZYWqpP9-15" value="&lt;div&gt;filter The data from catch&lt;/div&gt;" style="whiteSpace=wrap;html=1;rounded=0;" vertex="1" parent="1">
          <mxGeometry x="20" y="525" width="120" height="60" as="geometry" />
        </mxCell>
        <mxCell id="K16pZWRzyR4O-ZYWqpP9-17" value="yes" style="text;html=1;align=center;verticalAlign=middle;whiteSpace=wrap;rounded=0;" vertex="1" parent="1">
          <mxGeometry x="160" y="520" width="60" height="30" as="geometry" />
        </mxCell>
        <mxCell id="K16pZWRzyR4O-ZYWqpP9-18" value="NO" style="text;html=1;align=center;verticalAlign=middle;whiteSpace=wrap;rounded=0;" vertex="1" parent="1">
          <mxGeometry x="490" y="510" width="60" height="30" as="geometry" />
        </mxCell>
        <mxCell id="K16pZWRzyR4O-ZYWqpP9-29" style="edgeStyle=orthogonalEdgeStyle;rounded=0;orthogonalLoop=1;jettySize=auto;html=1;entryX=0;entryY=0.5;entryDx=0;entryDy=0;" edge="1" parent="1" source="K16pZWRzyR4O-ZYWqpP9-19" target="K16pZWRzyR4O-ZYWqpP9-6">
          <mxGeometry relative="1" as="geometry">
            <Array as="points">
              <mxPoint x="450" y="790" />
              <mxPoint x="10" y="790" />
              <mxPoint x="10" y="270" />
            </Array>
          </mxGeometry>
        </mxCell>
        <mxCell id="K16pZWRzyR4O-ZYWqpP9-19" value="&lt;div style=&quot;color: #d4d4d4;background-color: #1e1e1e;font-family: Consolas, &#39;Courier New&#39;, monospace;font-weight: normal;font-size: 14px;line-height: 19px;white-space: pre;&quot;&gt;&lt;div&gt;&lt;span style=&quot;color: #9cdcfe;&quot;&gt;training_data&lt;/span&gt;&lt;span style=&quot;color: #d4d4d4;&quot;&gt;.&lt;/span&gt;&lt;span style=&quot;color: #9cdcfe;&quot;&gt;questions&lt;/span&gt;&lt;/div&gt;&lt;/div&gt;" style="rounded=0;whiteSpace=wrap;html=1;" vertex="1" parent="1">
          <mxGeometry x="350" y="690" width="200" height="60" as="geometry" />
        </mxCell>
        <mxCell id="K16pZWRzyR4O-ZYWqpP9-21" style="edgeStyle=orthogonalEdgeStyle;rounded=0;orthogonalLoop=1;jettySize=auto;html=1;entryX=1;entryY=0.617;entryDx=0;entryDy=0;entryPerimeter=0;" edge="1" parent="1" source="K16pZWRzyR4O-ZYWqpP9-13" target="K16pZWRzyR4O-ZYWqpP9-19">
          <mxGeometry relative="1" as="geometry">
            <Array as="points">
              <mxPoint x="740" y="727" />
            </Array>
          </mxGeometry>
        </mxCell>
        <mxCell id="K16pZWRzyR4O-ZYWqpP9-24" style="edgeStyle=orthogonalEdgeStyle;rounded=0;orthogonalLoop=1;jettySize=auto;html=1;entryX=0.5;entryY=0;entryDx=0;entryDy=0;strokeColor=#ff0000;" edge="1" parent="1" source="K16pZWRzyR4O-ZYWqpP9-22" target="K16pZWRzyR4O-ZYWqpP9-11">
          <mxGeometry relative="1" as="geometry">
            <mxPoint x="1110" y="530" as="targetPoint" />
            <Array as="points">
              <mxPoint x="670" y="450" />
              <mxPoint x="335" y="450" />
            </Array>
          </mxGeometry>
        </mxCell>
        <mxCell id="K16pZWRzyR4O-ZYWqpP9-22" value="&lt;div style=&quot;color: #d4d4d4;background-color: #1e1e1e;font-family: Consolas, &#39;Courier New&#39;, monospace;font-weight: normal;font-size: 14px;line-height: 19px;white-space: pre;&quot;&gt;&lt;div&gt;&lt;span style=&quot;color: #dcdcaa;&quot;&gt;get_related_ddl&lt;/span&gt;&lt;/div&gt;&lt;/div&gt;" style="whiteSpace=wrap;html=1;rounded=0;" vertex="1" parent="1">
          <mxGeometry x="620" y="355" width="140" height="70" as="geometry" />
        </mxCell>
        <mxCell id="K16pZWRzyR4O-ZYWqpP9-28" style="edgeStyle=orthogonalEdgeStyle;rounded=0;orthogonalLoop=1;jettySize=auto;html=1;entryX=0.5;entryY=0;entryDx=0;entryDy=0;strokeColor=#00ff00;" edge="1" parent="1" source="K16pZWRzyR4O-ZYWqpP9-26" target="K16pZWRzyR4O-ZYWqpP9-11">
          <mxGeometry relative="1" as="geometry">
            <Array as="points">
              <mxPoint x="955" y="460" />
              <mxPoint x="335" y="460" />
            </Array>
          </mxGeometry>
        </mxCell>
        <mxCell id="K16pZWRzyR4O-ZYWqpP9-26" value="&lt;div style=&quot;color: #d4d4d4;background-color: #1e1e1e;font-family: Consolas, &#39;Courier New&#39;, monospace;font-weight: normal;font-size: 14px;line-height: 19px;white-space: pre;&quot;&gt;&lt;div&gt;&lt;span style=&quot;color: #dcdcaa;&quot;&gt;get_related_documentation&lt;/span&gt;&lt;/div&gt;&lt;/div&gt;" style="whiteSpace=wrap;html=1;rounded=0;" vertex="1" parent="1">
          <mxGeometry x="850" y="350" width="210" height="60" as="geometry" />
        </mxCell>
        <mxCell id="K16pZWRzyR4O-ZYWqpP9-33" value="" style="edgeStyle=orthogonalEdgeStyle;rounded=0;orthogonalLoop=1;jettySize=auto;html=1;" edge="1" parent="1" source="K16pZWRzyR4O-ZYWqpP9-30" target="K16pZWRzyR4O-ZYWqpP9-32">
          <mxGeometry relative="1" as="geometry" />
        </mxCell>
        <mxCell id="K16pZWRzyR4O-ZYWqpP9-35" value="" style="edgeStyle=orthogonalEdgeStyle;rounded=0;orthogonalLoop=1;jettySize=auto;html=1;" edge="1" parent="1" source="K16pZWRzyR4O-ZYWqpP9-30" target="K16pZWRzyR4O-ZYWqpP9-34">
          <mxGeometry relative="1" as="geometry" />
        </mxCell>
        <mxCell id="K16pZWRzyR4O-ZYWqpP9-30" value="&lt;div style=&quot;color: #d4d4d4;background-color: #1e1e1e;font-family: Consolas, &#39;Courier New&#39;, monospace;font-weight: normal;font-size: 14px;line-height: 19px;white-space: pre;&quot;&gt;&lt;div&gt;&lt;span style=&quot;color: #dcdcaa;&quot;&gt;get_sql_prompt&lt;/span&gt;&lt;/div&gt;&lt;/div&gt;" style="whiteSpace=wrap;html=1;rounded=0;" vertex="1" parent="1">
          <mxGeometry x="1170" y="350" width="150" height="60" as="geometry" />
        </mxCell>
        <mxCell id="K16pZWRzyR4O-ZYWqpP9-41" style="edgeStyle=orthogonalEdgeStyle;rounded=0;orthogonalLoop=1;jettySize=auto;html=1;entryX=0;entryY=0.5;entryDx=0;entryDy=0;" edge="1" parent="1" source="K16pZWRzyR4O-ZYWqpP9-32" target="K16pZWRzyR4O-ZYWqpP9-40">
          <mxGeometry relative="1" as="geometry" />
        </mxCell>
        <mxCell id="K16pZWRzyR4O-ZYWqpP9-32" value="&lt;div style=&quot;color: #d4d4d4;background-color: #1e1e1e;font-family: Consolas, &#39;Courier New&#39;, monospace;font-weight: normal;font-size: 14px;line-height: 19px;white-space: pre;&quot;&gt;&lt;div&gt;&lt;span style=&quot;color: #dcdcaa;&quot;&gt;add_ddl_to_prompt&lt;/span&gt;&lt;/div&gt;&lt;/div&gt;" style="whiteSpace=wrap;html=1;rounded=0;" vertex="1" parent="1">
          <mxGeometry x="1030" y="540" width="150" height="60" as="geometry" />
        </mxCell>
        <mxCell id="K16pZWRzyR4O-ZYWqpP9-44" style="edgeStyle=orthogonalEdgeStyle;rounded=0;orthogonalLoop=1;jettySize=auto;html=1;" edge="1" parent="1" source="K16pZWRzyR4O-ZYWqpP9-34" target="K16pZWRzyR4O-ZYWqpP9-43">
          <mxGeometry relative="1" as="geometry" />
        </mxCell>
        <mxCell id="K16pZWRzyR4O-ZYWqpP9-34" value="&lt;div style=&quot;color: #d4d4d4;background-color: #1e1e1e;font-family: Consolas, &#39;Courier New&#39;, monospace;font-weight: normal;font-size: 14px;line-height: 19px;white-space: pre;&quot;&gt;&lt;div&gt;&lt;span style=&quot;color: #dcdcaa;&quot;&gt;add_documentation_to_prompt&lt;/span&gt;&lt;/div&gt;&lt;/div&gt;" style="whiteSpace=wrap;html=1;rounded=0;" vertex="1" parent="1">
          <mxGeometry x="1220" y="540" width="230" height="60" as="geometry" />
        </mxCell>
        <mxCell id="K16pZWRzyR4O-ZYWqpP9-49" value="" style="edgeStyle=orthogonalEdgeStyle;rounded=0;orthogonalLoop=1;jettySize=auto;html=1;" edge="1" parent="1" source="K16pZWRzyR4O-ZYWqpP9-38" target="K16pZWRzyR4O-ZYWqpP9-48">
          <mxGeometry relative="1" as="geometry">
            <Array as="points">
              <mxPoint x="1640" y="385" />
              <mxPoint x="1640" y="140" />
            </Array>
          </mxGeometry>
        </mxCell>
        <mxCell id="K16pZWRzyR4O-ZYWqpP9-38" value="&lt;div style=&quot;color: #d4d4d4;background-color: #1e1e1e;font-family: Consolas, &#39;Courier New&#39;, monospace;font-weight: normal;font-size: 14px;line-height: 19px;white-space: pre;&quot;&gt;&lt;div&gt;&lt;span style=&quot;color: #dcdcaa;&quot;&gt;submit_prompt&lt;/span&gt;&lt;/div&gt;&lt;/div&gt;" style="whiteSpace=wrap;html=1;rounded=0;" vertex="1" parent="1">
          <mxGeometry x="1450" y="355" width="160" height="60" as="geometry" />
        </mxCell>
        <mxCell id="K16pZWRzyR4O-ZYWqpP9-42" style="edgeStyle=orthogonalEdgeStyle;rounded=0;orthogonalLoop=1;jettySize=auto;html=1;entryX=0;entryY=0.5;entryDx=0;entryDy=0;" edge="1" parent="1" source="K16pZWRzyR4O-ZYWqpP9-40" target="K16pZWRzyR4O-ZYWqpP9-34">
          <mxGeometry relative="1" as="geometry" />
        </mxCell>
        <mxCell id="K16pZWRzyR4O-ZYWqpP9-40" value="&lt;div&gt;Initial promt&lt;/div&gt;&lt;div&gt;&lt;br&gt;&lt;/div&gt;" style="rounded=0;whiteSpace=wrap;html=1;" vertex="1" parent="1">
          <mxGeometry x="1155" y="670" width="120" height="60" as="geometry" />
        </mxCell>
        <mxCell id="K16pZWRzyR4O-ZYWqpP9-47" style="edgeStyle=orthogonalEdgeStyle;rounded=0;orthogonalLoop=1;jettySize=auto;html=1;entryX=0;entryY=0.5;entryDx=0;entryDy=0;" edge="1" parent="1" source="K16pZWRzyR4O-ZYWqpP9-43" target="K16pZWRzyR4O-ZYWqpP9-38">
          <mxGeometry relative="1" as="geometry">
            <Array as="points">
              <mxPoint x="1510" y="700" />
              <mxPoint x="1510" y="470" />
              <mxPoint x="1420" y="470" />
              <mxPoint x="1420" y="385" />
            </Array>
          </mxGeometry>
        </mxCell>
        <mxCell id="K16pZWRzyR4O-ZYWqpP9-43" value="&lt;div&gt;Initial promt&lt;/div&gt;&lt;div&gt;&lt;br&gt;&lt;/div&gt;" style="rounded=0;whiteSpace=wrap;html=1;" vertex="1" parent="1">
          <mxGeometry x="1380" y="670" width="120" height="60" as="geometry" />
        </mxCell>
        <mxCell id="K16pZWRzyR4O-ZYWqpP9-50" style="edgeStyle=orthogonalEdgeStyle;rounded=0;orthogonalLoop=1;jettySize=auto;html=1;entryX=1;entryY=0.5;entryDx=0;entryDy=0;" edge="1" parent="1" source="K16pZWRzyR4O-ZYWqpP9-48" target="K16pZWRzyR4O-ZYWqpP9-2">
          <mxGeometry relative="1" as="geometry" />
        </mxCell>
        <mxCell id="K16pZWRzyR4O-ZYWqpP9-48" value="Extract Sql " style="whiteSpace=wrap;html=1;rounded=0;" vertex="1" parent="1">
          <mxGeometry x="1180" y="110" width="120" height="60" as="geometry" />
        </mxCell>
        <mxCell id="K16pZWRzyR4O-ZYWqpP9-53" value="training" style="rounded=0;whiteSpace=wrap;html=1;" vertex="1" parent="1">
          <mxGeometry x="240" y="20" width="190" height="70" as="geometry" />
        </mxCell>
      </root>
    </mxGraphModel>
  </diagram>
  <diagram id="j_L6LllU6mCGKeq9yJB3" name="Page-2">
    <mxGraphModel grid="1" page="1" gridSize="10" guides="1" tooltips="1" connect="1" arrows="1" fold="1" pageScale="1" pageWidth="850" pageHeight="1100" math="0" shadow="0">
      <root>
        <mxCell id="0" />
        <mxCell id="1" parent="0" />
        <mxCell id="CpRrhLq7ijMtVycJdGnX-4" value="" style="edgeStyle=orthogonalEdgeStyle;rounded=0;orthogonalLoop=1;jettySize=auto;html=1;" edge="1" parent="1" source="CpRrhLq7ijMtVycJdGnX-1" target="CpRrhLq7ijMtVycJdGnX-3">
          <mxGeometry relative="1" as="geometry" />
        </mxCell>
        <mxCell id="CpRrhLq7ijMtVycJdGnX-1" value="Generate Question&amp;nbsp;" style="rounded=1;whiteSpace=wrap;html=1;fillColor=#dae8fc;strokeColor=#6c8ebf;" vertex="1" parent="1">
          <mxGeometry x="320" y="70" width="120" height="60" as="geometry" />
        </mxCell>
        <mxCell id="CpRrhLq7ijMtVycJdGnX-6" value="" style="edgeStyle=orthogonalEdgeStyle;rounded=0;orthogonalLoop=1;jettySize=auto;html=1;" edge="1" parent="1" source="CpRrhLq7ijMtVycJdGnX-3" target="CpRrhLq7ijMtVycJdGnX-5">
          <mxGeometry relative="1" as="geometry" />
        </mxCell>
        <mxCell id="CpRrhLq7ijMtVycJdGnX-3" value="generate_sql" style="whiteSpace=wrap;html=1;rounded=1;fillColor=#f8cecc;strokeColor=#b85450;" vertex="1" parent="1">
          <mxGeometry x="320" y="210" width="120" height="60" as="geometry" />
        </mxCell>
        <mxCell id="CpRrhLq7ijMtVycJdGnX-8" value="" style="edgeStyle=orthogonalEdgeStyle;rounded=0;orthogonalLoop=1;jettySize=auto;html=1;" edge="1" parent="1" source="CpRrhLq7ijMtVycJdGnX-5" target="CpRrhLq7ijMtVycJdGnX-7">
          <mxGeometry relative="1" as="geometry" />
        </mxCell>
        <mxCell id="CpRrhLq7ijMtVycJdGnX-5" value="run_sql" style="whiteSpace=wrap;html=1;fillColor=#dae8fc;strokeColor=#6c8ebf;rounded=1;" vertex="1" parent="1">
          <mxGeometry x="320" y="350" width="120" height="60" as="geometry" />
        </mxCell>
        <mxCell id="CpRrhLq7ijMtVycJdGnX-11" value="" style="edgeStyle=orthogonalEdgeStyle;rounded=0;orthogonalLoop=1;jettySize=auto;html=1;" edge="1" parent="1" source="CpRrhLq7ijMtVycJdGnX-7" target="CpRrhLq7ijMtVycJdGnX-10">
          <mxGeometry relative="1" as="geometry" />
        </mxCell>
        <mxCell id="CpRrhLq7ijMtVycJdGnX-13" value="" style="edgeStyle=orthogonalEdgeStyle;rounded=0;orthogonalLoop=1;jettySize=auto;html=1;" edge="1" parent="1" source="CpRrhLq7ijMtVycJdGnX-7" target="CpRrhLq7ijMtVycJdGnX-12">
          <mxGeometry relative="1" as="geometry" />
        </mxCell>
        <mxCell id="CpRrhLq7ijMtVycJdGnX-7" value="" style="whiteSpace=wrap;html=1;fillColor=#dae8fc;strokeColor=#6c8ebf;rounded=1;" vertex="1" parent="1">
          <mxGeometry x="320" y="490" width="120" height="60" as="geometry" />
        </mxCell>
        <mxCell id="CpRrhLq7ijMtVycJdGnX-9" value="Dataframe" style="text;html=1;align=center;verticalAlign=middle;whiteSpace=wrap;rounded=0;" vertex="1" parent="1">
          <mxGeometry x="400" y="460" width="60" height="30" as="geometry" />
        </mxCell>
        <mxCell id="CpRrhLq7ijMtVycJdGnX-15" value="" style="edgeStyle=orthogonalEdgeStyle;rounded=0;orthogonalLoop=1;jettySize=auto;html=1;" edge="1" parent="1" source="CpRrhLq7ijMtVycJdGnX-10" target="CpRrhLq7ijMtVycJdGnX-14">
          <mxGeometry relative="1" as="geometry" />
        </mxCell>
        <mxCell id="CpRrhLq7ijMtVycJdGnX-10" value="generalplotely" style="whiteSpace=wrap;html=1;fillColor=#dae8fc;strokeColor=#6c8ebf;rounded=1;" vertex="1" parent="1">
          <mxGeometry x="320" y="630" width="120" height="60" as="geometry" />
        </mxCell>
        <mxCell id="CpRrhLq7ijMtVycJdGnX-12" value="&lt;pre style=&quot;background-color:#2b2b2b;color:#a9b7c6;font-family:&#39;JetBrains Mono&#39;,monospace;font-size:9.8pt;&quot;&gt;&lt;span style=&quot;color:#ffc66d;&quot;&gt;download_csv&lt;/span&gt;&lt;/pre&gt;" style="whiteSpace=wrap;html=1;fillColor=#dae8fc;strokeColor=#6c8ebf;rounded=1;" vertex="1" parent="1">
          <mxGeometry x="520" y="490" width="120" height="60" as="geometry" />
        </mxCell>
        <mxCell id="CpRrhLq7ijMtVycJdGnX-19" value="" style="edgeStyle=orthogonalEdgeStyle;rounded=0;orthogonalLoop=1;jettySize=auto;html=1;" edge="1" parent="1" source="CpRrhLq7ijMtVycJdGnX-14" target="CpRrhLq7ijMtVycJdGnX-18">
          <mxGeometry relative="1" as="geometry" />
        </mxCell>
        <mxCell id="CpRrhLq7ijMtVycJdGnX-14" value="generate_summary" style="whiteSpace=wrap;html=1;fillColor=#dae8fc;strokeColor=#6c8ebf;rounded=1;" vertex="1" parent="1">
          <mxGeometry x="320" y="770" width="120" height="60" as="geometry" />
        </mxCell>
        <mxCell id="CpRrhLq7ijMtVycJdGnX-21" value="" style="edgeStyle=orthogonalEdgeStyle;rounded=0;orthogonalLoop=1;jettySize=auto;html=1;" edge="1" parent="1" source="CpRrhLq7ijMtVycJdGnX-18" target="CpRrhLq7ijMtVycJdGnX-20">
          <mxGeometry relative="1" as="geometry" />
        </mxCell>
        <mxCell id="CpRrhLq7ijMtVycJdGnX-28" value="" style="edgeStyle=orthogonalEdgeStyle;rounded=0;orthogonalLoop=1;jettySize=auto;html=1;" edge="1" parent="1" source="CpRrhLq7ijMtVycJdGnX-18" target="CpRrhLq7ijMtVycJdGnX-27">
          <mxGeometry relative="1" as="geometry">
            <mxPoint x="300" y="950" as="sourcePoint" />
          </mxGeometry>
        </mxCell>
        <mxCell id="CpRrhLq7ijMtVycJdGnX-18" value="Correct Answer?" style="rhombus;whiteSpace=wrap;html=1;fillColor=#dae8fc;strokeColor=#6c8ebf;rounded=1;" vertex="1" parent="1">
          <mxGeometry x="310" y="910" width="140" height="80" as="geometry" />
        </mxCell>
        <mxCell id="CpRrhLq7ijMtVycJdGnX-20" value="genearte_followup Question" style="whiteSpace=wrap;html=1;fillColor=#dae8fc;strokeColor=#6c8ebf;rounded=1;" vertex="1" parent="1">
          <mxGeometry x="540" y="920" width="120" height="60" as="geometry" />
        </mxCell>
        <mxCell id="CpRrhLq7ijMtVycJdGnX-22" value="yes" style="text;html=1;align=center;verticalAlign=middle;whiteSpace=wrap;rounded=0;" vertex="1" parent="1">
          <mxGeometry x="460" y="910" width="60" height="30" as="geometry" />
        </mxCell>
        <mxCell id="CpRrhLq7ijMtVycJdGnX-25" value="No" style="text;html=1;align=center;verticalAlign=middle;whiteSpace=wrap;rounded=0;" vertex="1" parent="1">
          <mxGeometry x="240" y="910" width="60" height="30" as="geometry" />
        </mxCell>
        <mxCell id="CpRrhLq7ijMtVycJdGnX-30" value="" style="edgeStyle=orthogonalEdgeStyle;rounded=0;orthogonalLoop=1;jettySize=auto;html=1;" edge="1" parent="1" source="CpRrhLq7ijMtVycJdGnX-27" target="CpRrhLq7ijMtVycJdGnX-29">
          <mxGeometry relative="1" as="geometry" />
        </mxCell>
        <mxCell id="CpRrhLq7ijMtVycJdGnX-34" value="" style="edgeStyle=orthogonalEdgeStyle;rounded=0;orthogonalLoop=1;jettySize=auto;html=1;" edge="1" parent="1" source="CpRrhLq7ijMtVycJdGnX-27" target="CpRrhLq7ijMtVycJdGnX-33">
          <mxGeometry relative="1" as="geometry" />
        </mxCell>
        <mxCell id="CpRrhLq7ijMtVycJdGnX-27" value="Manual Fix or AutoFix&amp;nbsp;" style="rhombus;whiteSpace=wrap;html=1;fillColor=#dae8fc;strokeColor=#6c8ebf;rounded=1;" vertex="1" parent="1">
          <mxGeometry x="80" y="910" width="120" height="80" as="geometry" />
        </mxCell>
        <mxCell id="CpRrhLq7ijMtVycJdGnX-31" style="edgeStyle=orthogonalEdgeStyle;rounded=0;orthogonalLoop=1;jettySize=auto;html=1;entryX=0;entryY=0.5;entryDx=0;entryDy=0;" edge="1" parent="1" source="CpRrhLq7ijMtVycJdGnX-29" target="CpRrhLq7ijMtVycJdGnX-5">
          <mxGeometry relative="1" as="geometry">
            <Array as="points">
              <mxPoint x="-60" y="380" />
            </Array>
          </mxGeometry>
        </mxCell>
        <mxCell id="CpRrhLq7ijMtVycJdGnX-29" value="Update_sql" style="whiteSpace=wrap;html=1;fillColor=#f8cecc;strokeColor=#b85450;rounded=1;" vertex="1" parent="1">
          <mxGeometry x="-120" y="920" width="120" height="60" as="geometry" />
        </mxCell>
        <mxCell id="CpRrhLq7ijMtVycJdGnX-32" value="Manual Fix" style="text;html=1;align=center;verticalAlign=middle;resizable=0;points=[];autosize=1;strokeColor=none;fillColor=none;" vertex="1" parent="1">
          <mxGeometry x="10" y="908" width="80" height="30" as="geometry" />
        </mxCell>
        <mxCell id="CpRrhLq7ijMtVycJdGnX-33" value="fixed_sql" style="whiteSpace=wrap;html=1;fillColor=#dae8fc;strokeColor=#6c8ebf;rounded=1;" vertex="1" parent="1">
          <mxGeometry x="80" y="1080" width="120" height="60" as="geometry" />
        </mxCell>
      </root>
    </mxGraphModel>
  </diagram>
</mxfile>
